<svg version="1.1" id="Layer_1" xmlns="http://www.w3.org/2000/svg" xmlns:xlink="http://www.w3.org/1999/xlink" x="0px" y="0px"
	 width="100%" viewBox="0 0 656 522" enable-background="new 0 0 656 522" xml:space="preserve">
<path fill="#042239" opacity="1.000000" stroke="none" 
	d="
M451.000000,523.000000 
	C300.666656,523.000000 150.833328,523.000000 1.000000,523.000000 
	C1.000000,349.000000 1.000000,175.000000 1.000000,1.000000 
	C219.666672,1.000000 438.333344,1.000000 657.000000,1.000000 
	C657.000000,175.000000 657.000000,349.000000 657.000000,523.000000 
	C588.500000,523.000000 520.000000,523.000000 451.000000,523.000000 
M371.019440,230.189713 
	C371.618225,228.858536 372.217010,227.527344 373.154419,225.632294 
	C375.503326,217.393585 377.765717,209.128342 380.274719,200.938675 
	C380.772583,199.313614 382.216705,197.978470 383.499023,197.219406 
	C385.059143,200.945084 386.619232,204.670761 388.607971,209.420074 
	C391.205566,202.912018 393.182251,197.849396 390.174408,191.908401 
	C387.474640,186.575867 384.306183,181.041794 387.726227,174.439804 
	C389.942169,178.756546 392.158112,183.073288 394.365570,187.373535 
	C401.552155,178.144363 394.761261,170.006271 391.732269,160.156281 
	C395.758423,160.907822 398.534760,161.426071 401.311127,161.944336 
	C401.617065,161.587387 401.923004,161.230453 402.228943,160.873505 
	C400.191101,159.172272 398.387543,156.601395 396.060333,155.974533 
	C392.608398,155.044708 390.070709,157.395218 389.038330,160.831314 
	C388.228699,163.526123 387.668152,166.295776 386.737823,169.197769 
	C386.601929,169.399429 386.618317,169.587799 386.350433,170.449631 
	C386.286438,170.983902 386.222443,171.518158 385.776062,172.665436 
	C384.139465,178.705139 382.502899,184.744827 380.392792,191.346680 
	C377.299377,202.904556 374.205933,214.462448 370.908569,226.499252 
	C370.869690,226.841797 370.830811,227.184326 370.406250,227.967224 
	C370.445282,228.502075 370.484314,229.036911 371.019440,230.189713 
M347.909424,104.013199 
	C347.909424,104.013199 347.893005,104.094704 348.226898,104.579079 
	C349.487976,104.745712 350.749084,104.912338 352.567474,105.204224 
	C352.946686,105.191765 353.325897,105.179306 354.215363,105.606567 
	C355.924438,106.250854 357.633484,106.895142 360.065704,107.812035 
	C357.924622,109.208626 356.465393,110.160454 354.190002,110.975281 
	C349.639038,110.256721 345.110199,109.276115 340.531189,108.890068 
	C335.509521,108.466705 331.533569,110.626961 329.339325,115.628456 
	C332.925568,116.504883 336.511780,117.381302 341.395416,118.574791 
	C338.816833,120.118202 337.329681,121.023331 335.828430,121.904404 
	C327.544342,126.766167 319.256775,131.622070 310.192780,136.637466 
	C303.243011,136.918365 296.352478,132.303040 289.364990,135.703201 
	C289.280090,136.273560 289.195190,136.843918 289.110291,137.414261 
	C293.220062,138.220276 297.329803,139.026291 301.393219,140.603714 
	C293.991913,144.538193 289.453308,150.390961 288.284760,159.100159 
	C286.158325,154.897690 284.031891,150.695221 281.905457,146.492752 
	C281.344086,146.629456 280.782745,146.766159 280.221375,146.902878 
	C280.687531,149.438385 280.990509,152.017471 281.653778,154.500320 
	C283.043335,159.702057 284.622620,164.853119 285.746704,170.652863 
	C282.604279,181.477783 279.461884,192.302689 275.832489,202.423370 
	C273.927673,198.106613 272.022858,193.789856 269.760376,188.662506 
	C266.881989,195.615570 265.096680,201.452560 268.966553,207.579056 
	C270.101624,209.375977 270.634338,211.544693 271.530823,213.502838 
	C273.292206,217.350174 272.891357,220.840897 269.774536,223.178268 
	C268.063202,219.344543 266.351868,215.510818 264.386322,211.107590 
	C256.598785,220.659836 264.518799,228.529617 266.437012,238.018631 
	C262.572632,237.154037 259.794708,236.532516 257.016815,235.910995 
	C256.726379,236.259521 256.435913,236.608032 256.145477,236.956543 
	C258.184357,238.703720 259.969971,241.285187 262.322449,241.999435 
	C265.717499,243.030212 268.305206,240.931061 269.719910,237.126724 
	C269.839630,236.402039 269.959320,235.677353 270.242950,234.438126 
	C270.302063,234.083389 270.361176,233.728653 270.836487,233.008560 
	C270.866913,232.651413 270.897339,232.294266 271.134583,231.321182 
	C271.259216,230.683823 271.383881,230.046448 271.923462,229.037521 
	C271.945984,228.677948 271.968506,228.318390 272.160858,227.431732 
	C272.213715,227.066849 272.266571,226.701965 272.721680,226.106888 
	C272.837616,225.389679 272.953552,224.672455 273.243866,223.471100 
	C273.289276,223.131882 273.334686,222.792664 273.793640,222.198715 
	C273.908752,221.444443 274.023865,220.690170 274.313660,219.482422 
	C274.415497,219.172028 274.469818,218.853531 274.889618,218.253616 
	C275.008453,217.476181 275.127319,216.698730 275.435059,215.473389 
	C275.563110,215.171814 275.636963,214.857483 276.036896,214.103043 
	C276.056488,213.730560 276.076080,213.358093 276.245819,212.397903 
	C276.240570,211.994522 276.235321,211.591141 276.592499,210.717926 
	C276.951111,209.150818 277.309723,207.583710 278.145966,205.341904 
	C278.376526,204.549118 278.607086,203.756348 279.188293,202.583679 
	C279.192078,201.925949 279.195831,201.268219 279.768677,200.235947 
	C279.901703,199.810181 280.034760,199.384430 280.411194,198.310440 
	C280.664307,196.743011 280.917419,195.175598 281.705658,193.214890 
	C281.837799,192.800171 281.969940,192.385437 282.304626,191.394272 
	C282.270325,190.801666 282.236023,190.209045 282.770355,189.244263 
	C282.898926,188.818527 283.027466,188.392792 283.319214,187.540482 
	C283.405792,187.240829 283.414459,186.938965 283.715118,186.283310 
	C283.889191,185.493683 284.063263,184.704056 284.492096,183.277527 
	C284.726349,181.724182 284.960602,180.170837 285.773346,178.248032 
	C285.901581,177.817429 286.029816,177.386826 286.321136,176.538254 
	C286.409088,176.243744 286.415405,175.947495 286.721100,175.301971 
	C286.894104,174.504715 287.067108,173.707443 287.392365,172.529480 
	C287.485474,172.257034 287.473083,171.989487 287.739532,171.073349 
	C287.855621,170.083405 287.971710,169.093460 288.307373,167.769363 
	C288.378204,167.222610 288.449066,166.675858 289.082031,165.597992 
	C289.565460,163.885223 290.048920,162.172455 290.982544,159.936417 
	C292.190338,152.067703 295.943054,146.186935 303.770294,143.424515 
	C304.335358,143.225082 304.736511,142.561203 305.783142,141.772736 
	C307.470398,140.795547 309.157654,139.818359 311.490906,138.510742 
	C322.721100,132.057617 333.951294,125.604515 345.634094,118.921600 
	C345.749084,118.797447 345.864044,118.673286 346.285004,118.401123 
	C346.481903,118.278908 346.641479,118.119354 347.448700,117.746361 
	C348.255310,117.265221 349.061890,116.784073 350.414032,116.366226 
	C350.954681,115.924919 351.495331,115.483604 352.635925,114.795403 
	C353.363708,114.331612 354.091461,113.867821 355.513519,113.427666 
	C358.384613,111.669350 361.255676,109.911034 364.749878,107.855461 
	C367.790588,106.172974 370.906281,104.610802 373.851379,102.774933 
	C376.933594,100.853592 377.774567,97.853706 376.615601,94.535980 
	C375.584534,91.584366 373.325928,90.301430 369.753937,90.729294 
	C370.182068,91.568825 370.404175,91.957329 370.583801,92.364571 
	C371.463165,94.357994 372.331207,96.356407 373.203247,98.353050 
	C371.094421,98.591881 368.854401,99.408882 366.900360,98.965538 
	C359.905304,97.378433 353.445740,97.608070 347.529388,103.056213 
	C347.659210,103.402092 347.789032,103.747971 347.909424,104.013199 
M285.882416,294.880188 
	C285.882416,294.880188 285.856842,294.896149 285.166534,295.019073 
	C281.263519,296.797516 280.349304,299.949097 281.800293,303.620972 
	C282.979553,306.605164 285.386719,308.078186 289.094177,307.229706 
	C288.319519,303.981384 281.975342,302.206757 287.756195,298.320221 
	C291.493774,298.954132 295.223663,299.638458 298.970978,300.208282 
	C303.008484,300.822205 308.816895,297.654968 311.192749,293.397003 
	C307.167450,292.613159 303.236603,291.847717 299.305725,291.082275 
	C299.310577,290.532684 299.315399,289.983093 299.320251,289.433502 
	C301.231201,288.666718 303.142151,287.899933 305.622253,287.319702 
	C306.216248,287.327393 306.810272,287.335083 307.739227,287.699829 
	C308.480774,287.773834 309.222321,287.847839 310.772461,288.167053 
	C317.374115,290.122986 323.582031,289.858368 329.546875,284.762695 
	C329.828796,281.927338 329.823944,281.954254 326.982819,281.441406 
	C324.401764,280.975464 321.832825,280.442444 319.258545,279.938995 
	C319.236145,279.422668 319.213745,278.906311 319.191315,278.389954 
	C327.039673,273.923340 334.919739,269.510834 342.712006,264.948395 
	C344.456726,263.926819 345.893829,262.379913 348.259216,261.393127 
	C349.846954,261.776398 351.421692,262.413330 353.024902,262.495789 
	C358.000763,262.751740 362.987518,262.797058 368.561951,262.765564 
	C370.432770,260.122772 368.472382,259.779877 366.549225,259.404297 
	C363.751007,258.857758 360.954437,258.302704 358.157166,257.751282 
	C357.991974,257.328369 357.826782,256.905487 357.661621,256.482574 
	C365.305634,253.867920 368.336639,248.223434 369.061218,240.356781 
	C370.321381,237.039749 371.034668,239.447144 371.589081,240.674377 
	C373.226624,244.299133 374.738831,247.980515 376.300049,251.639755 
	C376.872253,251.416290 377.444458,251.192825 378.016663,250.969360 
	C378.529175,243.088379 373.103790,237.078033 371.500916,229.863464 
	C370.969818,229.917633 370.438721,229.971817 369.907623,230.025986 
	C369.047699,233.193878 368.187744,236.361771 366.950165,240.118515 
	C365.985046,243.168259 365.019928,246.218002 363.495483,249.428955 
	C362.900818,249.912277 362.306122,250.395584 361.144440,251.097519 
	C360.454254,251.519302 359.764099,251.941101 358.430267,252.431702 
	C357.208313,253.255234 355.986359,254.078766 354.286407,255.068649 
	C353.864746,255.342865 353.443115,255.617096 352.300812,256.006989 
	C344.057983,260.648468 335.753448,265.184601 327.592834,269.966400 
	C321.619873,273.466248 315.836090,277.288910 309.513062,281.155121 
	C309.513062,281.155121 309.097748,281.418976 308.516388,281.416077 
	C307.933929,281.887299 307.351471,282.358521 306.151154,283.070923 
	C305.210571,283.948822 304.269958,284.826721 302.618774,285.518646 
	C297.740204,288.194519 292.861633,290.870392 287.460815,293.559601 
	C286.944672,293.998627 286.428528,294.437622 285.882416,294.880188 
M437.297424,427.930420 
	C440.229034,427.695099 443.160675,427.459778 446.657990,426.651367 
	C446.794891,421.331146 446.931793,416.010925 446.939514,410.195557 
	C447.281067,409.111847 447.622620,408.028107 448.099731,406.118256 
	C448.309204,403.022034 448.320953,399.676117 444.400116,399.203705 
	C440.712402,398.759338 436.215912,397.381531 433.971069,403.347534 
	C434.154083,410.283875 434.337067,417.220184 434.768738,424.787201 
	C435.468384,425.647308 436.168030,426.507385 437.297424,427.930420 
M314.581818,235.162399 
	C314.738739,241.243301 317.062195,242.205521 326.186371,239.716873 
	C326.186371,233.847366 326.193176,227.873398 326.182983,221.899475 
	C326.178925,219.527008 325.888245,217.211349 329.542633,217.201355 
	C333.203918,217.191345 332.912445,219.505569 332.907959,221.880035 
	C332.896393,227.995056 332.904114,234.110123 332.904114,240.633331 
	C335.206970,240.633331 336.882385,240.433167 338.493103,240.671066 
	C343.221344,241.369415 344.782410,239.652451 344.662415,234.738846 
	C344.329132,221.090775 344.547974,207.429276 344.546539,193.773071 
	C344.544800,177.361923 343.356964,176.198135 326.850067,176.421036 
	C317.565674,176.546402 314.646729,179.413513 314.606903,188.773102 
	C314.542389,203.927872 314.584625,219.083115 314.581818,235.162399 
M283.023743,376.658630 
	C284.945526,376.658630 286.867279,376.658630 289.449310,376.658630 
	C289.449310,364.980286 289.498871,353.855072 289.431152,342.730591 
	C289.388916,335.791931 287.361603,333.787292 280.378052,334.023529 
	C277.819458,334.110046 275.276306,335.397705 272.744019,335.340698 
	C269.017273,335.256744 265.308075,334.447052 261.588593,333.968536 
	C258.027954,333.510437 257.043640,335.232666 257.109741,338.608185 
	C257.318176,349.257782 257.274689,359.912415 257.318420,370.565125 
	C257.346497,377.405609 257.527283,377.556976 265.091888,376.133667 
	C265.091888,374.481781 265.091675,372.700317 265.091888,370.918823 
	C265.092865,362.928467 264.959900,354.934052 265.202087,346.950989 
	C265.253784,345.245850 266.667816,343.582001 267.454193,341.899109 
	C268.133148,343.510559 269.357117,345.108063 269.398804,346.735809 
	C269.603241,354.720978 269.483063,362.714233 269.497467,370.704559 
	C269.509521,377.377502 269.994659,377.734863 277.178162,376.006073 
	C277.178162,367.009369 277.044312,357.878998 277.271790,348.757599 
	C277.329041,346.462402 278.893890,342.171509 279.174194,342.219971 
	C283.448120,342.959015 281.395416,346.530609 281.515656,348.919403 
	C281.973450,358.016052 282.075470,367.130554 283.023743,376.658630 
M235.400711,359.497498 
	C235.400711,351.081543 235.400711,342.665588 235.400711,334.368530 
	C227.827209,333.674927 227.827057,333.674927 227.802078,340.284088 
	C227.799561,340.950531 227.939407,341.653290 227.776306,342.277283 
	C226.970551,345.360260 229.755478,351.062042 225.668472,351.113617 
	C221.076385,351.171539 223.987869,345.541656 223.412369,342.490173 
	C222.913483,339.844849 223.308624,337.030914 223.308624,334.403870 
	C215.516953,333.633423 215.499222,333.633392 215.489288,340.118256 
	C215.473709,350.281586 215.475433,360.444946 215.488022,370.608307 
	C215.496353,377.340179 215.798340,377.565521 223.317551,376.123352 
	C223.317551,371.970490 223.150055,367.668884 223.418945,363.394714 
	C223.500351,362.100891 224.789825,360.883087 225.525940,359.630432 
	C226.280090,360.858246 227.603424,362.049713 227.684540,363.320496 
	C227.957504,367.596924 227.788376,371.901611 227.788376,376.507141 
	C230.485794,376.507141 232.572266,376.507141 235.400589,376.507141 
	C235.400589,371.053680 235.400589,365.774689 235.400711,359.497498 
M173.616241,366.434265 
	C173.616241,369.710846 173.616241,372.987396 173.616241,376.110809 
	C181.220123,377.621063 181.493210,377.407104 181.524994,370.675476 
	C181.535187,368.515594 181.343323,366.322083 181.671417,364.210358 
	C181.831573,363.179626 182.973358,362.301361 183.670807,361.354065 
	C184.398819,362.264771 185.665833,363.125610 185.755569,364.095367 
	C186.045410,367.227570 186.013977,370.404053 185.894745,373.555450 
	C185.773636,376.756683 187.727753,376.839233 190.102234,376.897644 
	C192.683731,376.961060 193.641098,375.933350 193.623642,373.377441 
	C193.548767,362.410950 193.648514,351.443146 193.555588,340.476929 
	C193.519806,336.253815 191.038727,334.168488 186.912674,333.982513 
	C185.254044,333.907745 183.589340,333.921387 181.928452,333.951813 
	C175.918472,334.061920 173.743607,336.076263 173.654663,342.023071 
	C173.537888,349.831238 173.619934,357.642395 173.616241,366.434265 
M349.130127,336.183014 
	C349.112030,345.648376 349.084656,355.113708 349.078064,364.579071 
	C349.069061,377.533203 349.073730,377.488220 362.201111,376.877411 
	C366.631287,376.671295 369.029785,374.595428 369.051788,370.127258 
	C369.100006,360.329773 369.234375,350.526764 368.929504,340.738586 
	C368.867859,338.758331 367.153076,335.251312 365.975403,335.153320 
	C360.448761,334.693542 354.843567,335.178101 349.130127,336.183014 
M473.624786,361.164001 
	C474.604187,361.019073 475.579010,360.816376 476.563721,360.738525 
	C482.974487,360.231873 484.701538,358.419861 484.754883,352.002838 
	C484.785339,348.339813 484.848663,344.673218 484.729065,341.013733 
	C484.572083,336.209900 482.463776,334.178284 477.584381,333.949402 
	C475.922852,333.871429 474.253357,333.889832 472.589844,333.940918 
	C467.027161,334.111694 464.652527,336.393066 464.855377,341.988281 
	C464.913361,343.588409 466.000031,346.163422 467.135590,346.491913 
	C469.202911,347.089996 472.258667,347.783783 472.929657,343.850433 
	C473.029083,343.267456 475.246643,343.045868 476.484253,342.657074 
	C476.596313,345.449432 477.076782,348.306976 476.601318,350.995422 
	C476.454071,351.828033 473.746063,352.547791 472.145782,352.720795 
	C466.989960,353.278137 464.985168,355.087860 464.785858,360.257477 
	C464.632050,364.248077 464.933350,368.260620 464.685791,372.241882 
	C464.447693,376.070343 466.066803,377.215088 469.674805,376.930969 
	C472.984558,376.670410 476.331696,376.833679 479.661072,376.889557 
	C482.450623,376.936401 484.895813,377.156219 484.855743,372.954102 
	C484.815552,368.738220 482.272430,369.079773 479.541046,369.046906 
	C472.309021,368.959900 472.309265,368.939362 473.624786,361.164001 
M422.867065,350.472595 
	C422.867065,354.419495 422.867065,358.366425 422.867065,361.946991 
	C423.887024,362.455414 424.172913,362.708344 424.476929,362.732483 
	C427.756958,362.992859 432.426453,362.006866 433.961884,363.765808 
	C435.775055,365.842957 435.053558,370.281799 435.104889,373.701660 
	C435.147705,376.553345 436.712372,376.852234 438.976715,376.909302 
	C441.595093,376.975250 442.964905,376.288605 442.936951,373.299988 
	C442.825104,361.323364 442.837860,349.344757 442.925720,337.367737 
	C442.945343,334.693054 441.773926,333.869934 439.323425,333.909729 
	C436.964081,333.948059 434.990906,334.066345 435.120789,337.290039 
	C435.268036,340.943665 435.409882,344.635406 435.040283,348.258148 
	C434.810303,350.512421 436.995544,353.998749 432.821777,354.558258 
	C432.456512,354.607239 431.143585,350.348358 430.917816,348.027435 
	C430.581116,344.566162 430.687347,341.042480 430.854889,337.557343 
	C430.998535,334.568787 429.502411,333.910706 426.906616,333.888092 
	C424.296631,333.865387 422.775330,334.555237 422.854553,337.509064 
	C422.961517,341.498627 422.872284,345.493408 422.867065,350.472595 
M130.322662,418.374207 
	C130.322662,413.914398 130.322662,409.454590 130.322662,404.994781 
	C131.046997,405.000336 131.771317,405.005890 132.495651,405.011444 
	C132.495651,412.326630 132.495651,419.641815 132.495651,427.343658 
	C135.678619,427.462921 138.407211,428.629333 138.411819,424.399658 
	C138.419266,417.573212 138.435364,410.746368 138.368484,403.920502 
	C138.336960,400.702606 136.575195,399.003540 133.359955,398.964294 
	C128.933105,398.910187 124.492104,398.748322 120.086723,399.055939 
	C118.920441,399.137360 116.929268,400.743347 116.900909,401.696442 
	C116.649582,410.145294 116.754875,418.604736 116.754875,427.542236 
	C118.811401,427.417969 120.335175,427.325897 122.743637,427.180359 
	C122.743637,419.447052 122.743637,412.219330 122.743637,404.991638 
	C123.326241,405.002930 123.908836,405.014221 124.491440,405.025482 
	C124.491440,412.360718 124.491440,419.695953 124.491440,426.770874 
	C128.930069,428.413910 130.716553,427.390442 130.340820,423.316254 
	C130.219009,421.995483 130.322250,420.653992 130.322662,418.374207 
M311.018707,368.413147 
	C311.026428,370.240204 310.737701,372.137634 311.148682,373.868988 
	C311.412048,374.978485 312.655548,376.625854 313.548950,376.685059 
	C317.946564,376.976501 322.374054,376.817444 326.646973,376.817444 
	C327.923431,370.061615 327.623779,369.063416 323.494324,369.180695 
	C319.516388,369.293640 318.585327,367.601959 318.929108,364.134644 
	C319.118835,362.221039 318.963104,360.273193 318.963104,358.344147 
	C321.301636,357.999542 322.913727,357.761993 324.421051,357.539886 
	C326.601227,352.256897 324.299072,350.040802 319.442230,349.880890 
	C318.456421,342.403412 318.456421,342.403412 326.751007,341.328735 
	C326.905670,338.700195 329.445435,335.011353 324.861145,334.166351 
	C320.575195,333.376343 316.029175,333.997375 311.018646,333.997375 
	C311.018646,345.581390 311.018646,356.507477 311.018707,368.413147 
M208.691360,426.335236 
	C209.125534,424.445496 209.863007,422.567169 209.934372,420.663818 
	C210.114670,415.855194 210.303314,411.007294 209.869522,406.231384 
	C209.643631,403.744354 212.199371,399.209747 207.341324,399.074921 
	C201.983871,398.926239 204.604904,403.745148 204.394913,406.318481 
	C203.975189,411.462158 204.270401,416.664185 204.270401,421.842102 
	C203.620102,421.855286 202.969818,421.868469 202.319519,421.881653 
	C202.174927,420.385406 201.922226,418.890381 201.905502,417.392700 
	C201.849930,412.411865 202.072189,407.417145 201.740738,402.457672 
	C201.657410,401.211121 199.902985,400.076263 198.916534,398.890076 
	C197.975906,400.106537 196.273102,401.291962 196.222061,402.544678 
	C195.951843,409.175507 196.094055,415.823212 196.099533,422.465088 
	C196.102371,425.911377 197.760422,427.811279 201.281006,427.643372 
	C203.561615,427.534637 205.828369,427.135529 208.691360,426.335236 
M599.624207,416.441895 
	C599.624207,418.764526 599.776855,421.099487 599.591003,423.407135 
	C599.253418,427.598297 601.182861,428.329498 604.833557,427.027924 
	C605.102112,423.697571 605.371155,420.360474 605.640259,417.023376 
	C606.226135,417.046143 606.812012,417.068909 607.397949,417.091644 
	C607.638916,420.416168 607.879944,423.740662 608.128479,427.168945 
	C609.870728,427.168945 611.398010,427.168945 613.268494,427.168945 
	C613.268494,420.561005 613.214478,414.360321 613.281555,408.160950 
	C613.376343,399.399109 611.948181,397.946869 603.157898,399.071625 
	C601.856995,399.238068 599.924866,401.234558 599.793579,402.536560 
	C599.362976,406.806824 599.627991,411.147247 599.624207,416.441895 
M511.465332,423.879639 
	C511.459778,417.401794 511.583435,410.920441 511.406097,404.447296 
	C511.274139,399.629608 509.650696,399.005676 502.463593,398.827576 
	C498.041351,398.718018 497.654816,400.935394 497.739166,404.380493 
	C497.893616,410.688477 497.924835,417.007263 497.732178,423.313141 
	C497.609619,427.324310 499.109192,428.455383 503.786621,426.666107 
	C503.786621,419.688477 503.786621,412.368256 503.786621,405.048004 
	C504.412476,405.062561 505.038361,405.077087 505.664215,405.091614 
	C505.664215,412.402069 505.664215,419.712524 505.664215,427.042755 
	C508.790649,427.614288 511.219574,428.549927 511.465332,423.879639 
M314.182373,405.052277 
	C313.225342,403.125458 312.600250,399.881104 311.243805,399.539368 
	C308.187958,398.769470 304.765015,399.369690 301.506592,399.614319 
	C301.148407,399.641205 300.628815,400.980621 300.623383,401.714539 
	C300.561035,410.155701 300.583649,418.597473 300.583649,427.517029 
	C302.710785,427.416534 304.254028,427.343628 306.064392,427.258087 
	C306.064392,425.089844 305.987640,423.434204 306.086121,421.789093 
	C306.183502,420.162170 306.457886,418.545837 306.654602,416.924866 
	C307.183441,416.941040 307.712250,416.957245 308.241058,416.973419 
	C308.538269,420.382660 308.835510,423.791870 309.139740,427.281738 
	C310.876068,427.281738 312.300415,427.281738 314.184814,427.281738 
	C314.184814,419.959686 314.184814,412.919373 314.182373,405.052277 
M92.872040,399.815948 
	C83.636368,396.981079 80.992638,398.885437 80.996552,408.367737 
	C80.998337,412.695374 81.092453,417.025757 80.969604,421.349915 
	C80.847023,425.664856 82.474068,427.794891 87.105049,427.728485 
	C93.914970,427.630798 94.820549,426.921326 94.851128,419.955688 
	C94.863548,417.126129 95.020737,414.283600 94.807411,411.470032 
	C94.524406,407.737579 93.943123,404.027679 92.872040,399.815948 
M398.862732,419.539734 
	C398.862732,422.015350 398.862732,424.490997 398.862732,426.930664 
	C402.742157,428.288757 404.583771,427.634735 404.391327,423.407715 
	C404.164429,418.421539 404.288666,413.415955 404.383148,408.421112 
	C404.405640,407.231140 404.914764,406.050385 405.200043,404.865387 
	C405.758575,404.937500 406.317108,405.009613 406.875641,405.081726 
	C406.875641,412.429810 406.875641,419.777893 406.875641,426.916595 
	C410.959015,428.230774 412.653656,427.429474 412.549896,423.555908 
	C412.380493,417.231323 412.499969,410.899078 412.492249,404.570068 
	C412.487854,400.948395 410.803955,398.940338 407.049194,398.939667 
	C404.456299,398.939240 401.863373,398.939575 398.862823,398.939575 
	C398.862823,406.040405 398.862823,412.346069 398.862732,419.539734 
M174.125549,403.428680 
	C172.464386,398.976898 169.466415,397.789764 163.216705,398.922211 
	C158.944595,399.696320 160.686218,403.018707 160.599808,405.301971 
	C160.373627,411.277496 160.669098,417.272095 160.472198,423.249725 
	C160.341782,427.208740 161.792038,428.416534 165.792633,426.979919 
	C165.883789,425.550934 166.128418,424.079498 166.040466,422.628235 
	C165.823196,419.042755 165.952850,416.119354 170.886475,415.982178 
	C172.009949,415.950897 173.627228,413.338074 174.004852,411.682526 
	C174.545822,409.310913 174.156143,406.727020 174.125549,403.428680 
M50.958092,410.706818 
	C51.042439,408.812653 51.126789,406.918457 51.246937,404.220276 
	C52.483620,405.189392 52.892303,405.679047 53.413185,405.885162 
	C54.820202,406.441986 56.274956,406.878143 57.710773,407.362183 
	C58.140293,405.895355 59.101295,404.351715 58.902512,402.975647 
	C58.229374,398.315857 54.437874,398.949310 51.134434,398.866119 
	C47.533081,398.775391 45.362934,400.329865 45.300186,404.075439 
	C45.211075,409.395050 45.233547,414.717041 45.253227,420.037842 
	C45.279102,427.034302 49.398361,429.970215 55.960342,427.274200 
	C57.370502,426.694824 58.435570,424.431702 58.903782,422.735535 
	C59.164276,421.791901 57.865128,420.417725 57.268887,419.237579 
	C55.855473,420.028748 54.451908,420.838470 53.022156,421.598907 
	C52.633915,421.805450 52.166698,421.863495 50.957394,422.217560 
	C50.957394,418.460052 50.957394,415.053955 50.958092,410.706818 
M572.273071,421.447754 
	C572.103210,418.733124 571.045776,415.702484 575.147461,414.626648 
	C575.420471,414.555023 575.274658,411.608582 574.767761,410.199219 
	C574.255554,408.774811 573.051331,407.599243 572.150269,406.314636 
	C573.276917,405.616974 574.667297,405.135468 575.461975,404.165802 
	C576.408936,403.010437 576.845093,401.436371 577.502563,400.043732 
	C574.644592,399.691528 571.773132,399.041412 568.936768,399.169067 
	C568.088379,399.207245 566.688049,401.399200 566.649475,402.638855 
	C566.427612,409.773773 566.425659,416.922516 566.647278,424.057343 
	C566.684570,425.256714 568.140503,427.376190 569.003845,427.408875 
	C571.832031,427.515961 574.689331,426.856567 577.535400,426.491852 
	C577.285645,425.293091 577.420410,423.659149 576.685364,423.009460 
	C575.831665,422.255005 574.214966,422.363983 572.273071,421.447754 
M538.533813,427.667511 
	C539.198669,427.666718 539.969360,427.883972 540.507751,427.622650 
	C541.902405,426.945740 543.194702,426.058075 544.527893,425.254517 
	C543.302795,424.285309 542.100159,423.285400 540.841431,422.362061 
	C540.339050,421.993530 539.712646,421.794128 537.923584,420.926544 
	C539.359253,418.754395 540.468689,416.768829 541.876648,415.024139 
	C543.601868,412.886139 543.638306,411.388214 541.131470,409.792755 
	C540.142700,409.163452 539.262024,407.620911 539.245239,406.480774 
	C539.234863,405.773590 541.145752,405.194733 541.825500,404.283264 
	C542.794189,402.984436 543.424622,401.433289 544.199524,399.989899 
	C541.332275,399.644714 538.452271,399.010925 535.605713,399.136292 
	C534.788879,399.172302 533.445984,401.382172 533.407288,402.628296 
	C533.190674,409.602661 533.457581,416.592255 533.230835,423.565979 
	C533.118225,427.030396 534.611816,428.008484 538.533813,427.667511 
M369.070892,398.914734 
	C367.976044,399.846191 365.959229,400.750366 365.930756,401.713348 
	C365.681091,410.152130 365.786346,418.601440 365.786346,427.274048 
	C369.700531,427.274048 373.090485,427.274048 376.333832,427.274048 
	C378.564636,421.865997 373.898285,422.918976 370.622955,421.446838 
	C371.523834,419.271027 371.807526,416.590637 373.284698,415.432617 
	C376.379364,413.006500 376.234955,411.649506 373.017426,409.741455 
	C372.147675,409.225739 371.476532,407.698975 371.470276,406.631866 
	C371.465881,405.872223 372.684357,405.058929 373.435059,404.352417 
	C374.552551,403.300629 375.738831,402.321930 376.895844,401.312164 
	C375.386444,400.513336 373.921417,399.605560 372.347656,398.964691 
	C371.633301,398.673767 370.703491,398.911896 369.070892,398.914734 
M273.166382,421.248169 
	C273.289581,418.834015 271.722351,415.709686 275.894135,414.869720 
	C276.049255,414.838501 275.861908,411.524963 275.294281,409.933594 
	C274.734741,408.364929 273.488312,407.041260 272.543213,405.610077 
	C273.238251,405.660492 273.933289,405.710907 274.628326,405.761322 
	C275.970551,404.055298 277.312775,402.349304 278.654968,400.643311 
	C276.102081,400.046631 273.555603,399.066620 270.993500,399.023804 
	C269.809143,399.003967 267.592926,400.774078 267.552917,401.799286 
	C267.255310,409.427582 267.275482,417.076111 267.516235,424.708191 
	C267.548248,425.723969 269.396210,427.524017 270.379242,427.507812 
	C273.146118,427.462128 275.900452,426.658417 278.659729,426.153564 
	C278.113739,424.949951 277.834869,423.452881 276.937134,422.635620 
	C276.220520,421.983307 274.750061,422.159119 273.166382,421.248169 
M235.717224,422.969604 
	C235.255005,427.544586 237.230988,428.500977 241.411011,426.774780 
	C241.411011,420.648102 241.239105,414.673096 241.526855,408.720276 
	C241.602753,407.150024 243.148056,405.673187 243.924118,404.106628 
	C244.458572,403.027771 245.255814,401.815063 245.124466,400.763458 
	C245.037323,400.065704 243.551758,399.102936 242.631805,399.031036 
	C239.825058,398.811646 236.980942,398.851013 234.169693,399.049561 
	C233.387421,399.104797 232.173477,399.962036 232.038788,400.629272 
	C231.843567,401.596344 232.220856,403.505463 232.750320,403.660675 
	C236.723221,404.825378 235.630524,407.977570 235.697083,410.610748 
	C235.793640,414.430786 235.718750,418.255219 235.717224,422.969604 
M469.919525,403.198425 
	C469.919525,411.133759 469.919525,419.069122 469.919525,426.969971 
	C473.755493,428.194214 475.869293,427.961761 475.755402,423.589172 
	C475.573975,416.623444 475.840088,409.644531 475.578430,402.683868 
	C475.529846,401.390900 473.885925,400.157928 472.978302,398.897247 
	C471.960419,400.058868 470.942505,401.220459 469.919525,403.198425 
z"/>
<path fill="#8EC1EC" opacity="1.000000" stroke="none" 
	d="
M314.581818,234.700287 
	C314.584625,219.083115 314.542389,203.927872 314.606903,188.773102 
	C314.646729,179.413513 317.565674,176.546402 326.850067,176.421036 
	C343.356964,176.198135 344.544800,177.361923 344.546539,193.773071 
	C344.547974,207.429276 344.329132,221.090775 344.662415,234.738846 
	C344.782410,239.652451 343.221344,241.369415 338.493103,240.671066 
	C336.882385,240.433167 335.206970,240.633331 332.904114,240.633331 
	C332.904114,234.110123 332.896393,227.995056 332.907959,221.880035 
	C332.912445,219.505569 333.203918,217.191345 329.542633,217.201355 
	C325.888245,217.211349 326.178925,219.527008 326.182983,221.899475 
	C326.193176,227.873398 326.186371,233.847366 326.186371,239.716873 
	C317.062195,242.205521 314.738739,241.243301 314.581818,234.700287 
M331.252167,205.705887 
	C331.796112,205.169159 332.800171,204.642822 332.812531,204.094070 
	C332.931793,198.814957 332.883972,193.532043 332.883972,187.999435 
	C330.483948,187.999435 328.582916,187.999435 326.110352,187.999435 
	C326.110352,192.740112 326.297699,197.205109 326.049469,201.645782 
	C325.860229,205.031601 327.196747,206.226135 331.252167,205.705887 
z"/>
<path fill="#8ABCE7" opacity="1.000000" stroke="none" 
	d="
M282.667114,376.448517 
	C282.075470,367.130554 281.973450,358.016052 281.515656,348.919403 
	C281.395416,346.530609 283.448120,342.959015 279.174194,342.219971 
	C278.893890,342.171509 277.329041,346.462402 277.271790,348.757599 
	C277.044312,357.878998 277.178162,367.009369 277.178162,376.006073 
	C269.994659,377.734863 269.509521,377.377502 269.497467,370.704559 
	C269.483063,362.714233 269.603241,354.720978 269.398804,346.735809 
	C269.357117,345.108063 268.133148,343.510559 267.454193,341.899109 
	C266.667816,343.582001 265.253784,345.245850 265.202087,346.950989 
	C264.959900,354.934052 265.092865,362.928467 265.091888,370.918823 
	C265.091675,372.700317 265.091888,374.481781 265.091888,376.133667 
	C257.527283,377.556976 257.346497,377.405609 257.318420,370.565125 
	C257.274689,359.912415 257.318176,349.257782 257.109741,338.608185 
	C257.043640,335.232666 258.027954,333.510437 261.588593,333.968536 
	C265.308075,334.447052 269.017273,335.256744 272.744019,335.340698 
	C275.276306,335.397705 277.819458,334.110046 280.378052,334.023529 
	C287.361603,333.787292 289.388916,335.791931 289.431152,342.730591 
	C289.498871,353.855072 289.449310,364.980286 289.449310,376.658630 
	C286.867279,376.658630 284.945526,376.658630 282.667114,376.448517 
z"/>
<path fill="#8CBFE9" opacity="1.000000" stroke="none" 
	d="
M235.400650,359.996582 
	C235.400589,365.774689 235.400589,371.053680 235.400589,376.507141 
	C232.572266,376.507141 230.485794,376.507141 227.788376,376.507141 
	C227.788376,371.901611 227.957504,367.596924 227.684540,363.320496 
	C227.603424,362.049713 226.280090,360.858246 225.525940,359.630432 
	C224.789825,360.883087 223.500351,362.100891 223.418945,363.394714 
	C223.150055,367.668884 223.317551,371.970490 223.317551,376.123352 
	C215.798340,377.565521 215.496353,377.340179 215.488022,370.608307 
	C215.475433,360.444946 215.473709,350.281586 215.489288,340.118256 
	C215.499222,333.633392 215.516953,333.633423 223.308624,334.403870 
	C223.308624,337.030914 222.913483,339.844849 223.412369,342.490173 
	C223.987869,345.541656 221.076385,351.171539 225.668472,351.113617 
	C229.755478,351.062042 226.970551,345.360260 227.776306,342.277283 
	C227.939407,341.653290 227.799561,340.950531 227.802078,340.284088 
	C227.827057,333.674927 227.827209,333.674927 235.400711,334.368530 
	C235.400711,342.665588 235.400711,351.081543 235.400650,359.996582 
z"/>
<path fill="#88BAE4" opacity="1.000000" stroke="none" 
	d="
M173.616364,365.943268 
	C173.619934,357.642395 173.537888,349.831238 173.654663,342.023071 
	C173.743607,336.076263 175.918472,334.061920 181.928452,333.951813 
	C183.589340,333.921387 185.254044,333.907745 186.912674,333.982513 
	C191.038727,334.168488 193.519806,336.253815 193.555588,340.476929 
	C193.648514,351.443146 193.548767,362.410950 193.623642,373.377441 
	C193.641098,375.933350 192.683731,376.961060 190.102234,376.897644 
	C187.727753,376.839233 185.773636,376.756683 185.894745,373.555450 
	C186.013977,370.404053 186.045410,367.227570 185.755569,364.095367 
	C185.665833,363.125610 184.398819,362.264771 183.670822,361.354065 
	C182.973358,362.301361 181.831573,363.179626 181.671417,364.210358 
	C181.343323,366.322083 181.535187,368.515594 181.524994,370.675476 
	C181.493210,377.407104 181.220123,377.621063 173.616241,376.110809 
	C173.616241,372.987396 173.616241,369.710846 173.616364,365.943268 
M186.193253,344.935699 
	C185.335251,343.800293 184.477249,342.664856 183.619263,341.529449 
	C182.810318,342.717316 181.632278,343.808197 181.288239,345.118134 
	C180.881119,346.668335 180.883270,348.488617 181.288925,350.039948 
	C181.634933,351.363190 182.803329,352.471436 183.607910,353.674774 
	C184.468765,352.543671 185.683640,351.526367 186.093704,350.250397 
	C186.528534,348.897278 186.198914,347.298492 186.193253,344.935699 
z"/>
<path fill="#88BAE4" opacity="1.000000" stroke="none" 
	d="
M349.198273,335.754272 
	C354.843567,335.178101 360.448761,334.693542 365.975403,335.153320 
	C367.153076,335.251312 368.867859,338.758331 368.929504,340.738586 
	C369.234375,350.526764 369.100006,360.329773 369.051788,370.127258 
	C369.029785,374.595428 366.631287,376.671295 362.201111,376.877411 
	C349.073730,377.488220 349.069061,377.533203 349.078064,364.579071 
	C349.084656,355.113708 349.112030,345.648376 349.198273,335.754272 
M361.445038,360.451508 
	C361.433289,355.122345 361.523743,349.789124 361.311554,344.467957 
	C361.275238,343.556854 359.947266,342.697266 359.216003,341.813873 
	C358.470276,342.517487 357.091034,343.208160 357.076324,343.926727 
	C356.919495,351.583618 356.919617,359.246185 357.075195,366.903107 
	C357.090027,367.632080 358.435120,368.873322 359.187286,368.892151 
	C359.899658,368.909973 361.119720,367.723938 361.277191,366.905792 
	C361.618011,365.135529 361.421783,363.261902 361.445038,360.451508 
z"/>
<path fill="#86B8E2" opacity="1.000000" stroke="none" 
	d="
M473.326416,361.527679 
	C472.309265,368.939362 472.309021,368.959900 479.541046,369.046906 
	C482.272430,369.079773 484.815552,368.738220 484.855743,372.954102 
	C484.895813,377.156219 482.450623,376.936401 479.661072,376.889557 
	C476.331696,376.833679 472.984558,376.670410 469.674805,376.930969 
	C466.066803,377.215088 464.447693,376.070343 464.685791,372.241882 
	C464.933350,368.260620 464.632050,364.248077 464.785858,360.257477 
	C464.985168,355.087860 466.989960,353.278137 472.145782,352.720795 
	C473.746063,352.547791 476.454071,351.828033 476.601318,350.995422 
	C477.076782,348.306976 476.596313,345.449432 476.484253,342.657104 
	C475.246643,343.045868 473.029083,343.267456 472.929657,343.850433 
	C472.258667,347.783783 469.202911,347.089996 467.135590,346.491913 
	C466.000031,346.163422 464.913361,343.588409 464.855377,341.988281 
	C464.652527,336.393066 467.027161,334.111694 472.589844,333.940918 
	C474.253357,333.889832 475.922852,333.871429 477.584381,333.949402 
	C482.463776,334.178284 484.572083,336.209900 484.729065,341.013733 
	C484.848663,344.673218 484.785339,348.339813 484.754883,352.002838 
	C484.701538,358.419861 482.974487,360.231873 476.563721,360.738525 
	C475.579010,360.816376 474.604187,361.019073 473.326416,361.527679 
z"/>
<path fill="#86B8E2" opacity="1.000000" stroke="none" 
	d="
M422.867188,349.979279 
	C422.872284,345.493408 422.961517,341.498627 422.854553,337.509064 
	C422.775330,334.555237 424.296631,333.865387 426.906616,333.888092 
	C429.502411,333.910706 430.998535,334.568787 430.854889,337.557343 
	C430.687347,341.042480 430.581116,344.566162 430.917816,348.027435 
	C431.143585,350.348358 432.456512,354.607239 432.821777,354.558258 
	C436.995544,353.998749 434.810303,350.512421 435.040283,348.258148 
	C435.409882,344.635406 435.268036,340.943665 435.120789,337.290039 
	C434.990906,334.066345 436.964081,333.948059 439.323425,333.909729 
	C441.773926,333.869934 442.945343,334.693054 442.925720,337.367737 
	C442.837860,349.344757 442.825104,361.323364 442.936951,373.299988 
	C442.964905,376.288605 441.595093,376.975250 438.976715,376.909302 
	C436.712372,376.852234 435.147705,376.553345 435.104889,373.701660 
	C435.053558,370.281799 435.775055,365.842957 433.961884,363.765808 
	C432.426453,362.006866 427.756958,362.992859 424.476929,362.732483 
	C424.172913,362.708344 423.887024,362.455414 422.867065,361.946991 
	C422.867065,358.366425 422.867065,354.419495 422.867188,349.979279 
z"/>
<path fill="#88BAE4" opacity="1.000000" stroke="none" 
	d="
M130.322601,418.848083 
	C130.322250,420.653992 130.219009,421.995483 130.340820,423.316254 
	C130.716553,427.390442 128.930069,428.413910 124.491440,426.770874 
	C124.491440,419.695953 124.491440,412.360718 124.491440,405.025482 
	C123.908836,405.014221 123.326241,405.002930 122.743637,404.991638 
	C122.743637,412.219330 122.743637,419.447052 122.743637,427.180359 
	C120.335175,427.325897 118.811401,427.417969 116.754875,427.542236 
	C116.754875,418.604736 116.649582,410.145294 116.900909,401.696442 
	C116.929268,400.743347 118.920441,399.137360 120.086723,399.055939 
	C124.492104,398.748322 128.933105,398.910187 133.359955,398.964294 
	C136.575195,399.003540 138.336960,400.702606 138.368484,403.920502 
	C138.435364,410.746368 138.419266,417.573212 138.411819,424.399658 
	C138.407211,428.629333 135.678619,427.462921 132.495651,427.343658 
	C132.495651,419.641815 132.495651,412.326630 132.495651,405.011444 
	C131.771317,405.005890 131.046997,405.000336 130.322662,404.994781 
	C130.322662,409.454590 130.322662,413.914398 130.322601,418.848083 
z"/>
<path fill="#88BAE4" opacity="1.000000" stroke="none" 
	d="
M311.018677,367.923340 
	C311.018646,356.507477 311.018646,345.581390 311.018646,333.997375 
	C316.029175,333.997375 320.575195,333.376343 324.861145,334.166351 
	C329.445435,335.011353 326.905670,338.700195 326.751007,341.328735 
	C318.456421,342.403412 318.456421,342.403412 319.442230,349.880890 
	C324.299072,350.040802 326.601227,352.256897 324.421051,357.539886 
	C322.913727,357.761993 321.301636,357.999542 318.963104,358.344147 
	C318.963104,360.273193 319.118835,362.221039 318.929108,364.134644 
	C318.585327,367.601959 319.516388,369.293640 323.494324,369.180695 
	C327.623779,369.063416 327.923431,370.061615 326.646973,376.817444 
	C322.374054,376.817444 317.946564,376.976501 313.548950,376.685059 
	C312.655548,376.625854 311.412048,374.978485 311.148682,373.868988 
	C310.737701,372.137634 311.026428,370.240204 311.018677,367.923340 
z"/>
<path fill="#7EAFD8" opacity="1.000000" stroke="none" 
	d="
M208.396347,426.600891 
	C205.828369,427.135529 203.561615,427.534637 201.281006,427.643372 
	C197.760422,427.811279 196.102371,425.911377 196.099533,422.465088 
	C196.094055,415.823212 195.951843,409.175507 196.222061,402.544678 
	C196.273102,401.291962 197.975906,400.106537 198.916534,398.890076 
	C199.902985,400.076263 201.657410,401.211121 201.740738,402.457672 
	C202.072189,407.417145 201.849930,412.411865 201.905502,417.392700 
	C201.922226,418.890381 202.174927,420.385406 202.319519,421.881653 
	C202.969818,421.868469 203.620102,421.855286 204.270401,421.842102 
	C204.270401,416.664185 203.975189,411.462158 204.394913,406.318481 
	C204.604904,403.745148 201.983871,398.926239 207.341324,399.074921 
	C212.199371,399.209747 209.643631,403.744354 209.869522,406.231384 
	C210.303314,411.007294 210.114670,415.855194 209.934372,420.663818 
	C209.863007,422.567169 209.125534,424.445496 208.396347,426.600891 
z"/>
<path fill="#88BAE4" opacity="1.000000" stroke="none" 
	d="
M599.624878,415.951294 
	C599.627991,411.147247 599.362976,406.806824 599.793579,402.536560 
	C599.924866,401.234558 601.856995,399.238068 603.157898,399.071625 
	C611.948181,397.946869 613.376343,399.399109 613.281555,408.160950 
	C613.214478,414.360321 613.268494,420.561005 613.268494,427.168945 
	C611.398010,427.168945 609.870728,427.168945 608.128479,427.168945 
	C607.879944,423.740662 607.638916,420.416168 607.397949,417.091644 
	C606.812012,417.068909 606.226135,417.046143 605.640259,417.023376 
	C605.371155,420.360474 605.102112,423.697571 604.833557,427.027924 
	C601.182861,428.329498 599.253418,427.598297 599.591003,423.407135 
	C599.776855,421.099487 599.624207,418.764526 599.624878,415.951294 
z"/>
<path fill="#88BAE4" opacity="1.000000" stroke="none" 
	d="
M511.461853,424.302612 
	C511.219574,428.549927 508.790649,427.614288 505.664215,427.042755 
	C505.664215,419.712524 505.664215,412.402069 505.664215,405.091614 
	C505.038361,405.077087 504.412476,405.062561 503.786621,405.048004 
	C503.786621,412.368256 503.786621,419.688477 503.786621,426.666107 
	C499.109192,428.455383 497.609619,427.324310 497.732178,423.313141 
	C497.924835,417.007263 497.893616,410.688477 497.739166,404.380493 
	C497.654816,400.935394 498.041351,398.718018 502.463593,398.827576 
	C509.650696,399.005676 511.274139,399.629608 511.406097,404.447296 
	C511.583435,410.920441 511.459778,417.401794 511.461853,424.302612 
z"/>
<path fill="#8ABCE7" opacity="1.000000" stroke="none" 
	d="
M314.183594,405.465698 
	C314.184814,412.919373 314.184814,419.959686 314.184814,427.281738 
	C312.300415,427.281738 310.876068,427.281738 309.139740,427.281738 
	C308.835510,423.791870 308.538269,420.382660 308.241058,416.973419 
	C307.712250,416.957245 307.183441,416.941040 306.654602,416.924866 
	C306.457886,418.545837 306.183502,420.162170 306.086121,421.789093 
	C305.987640,423.434204 306.064392,425.089844 306.064392,427.258087 
	C304.254028,427.343628 302.710785,427.416534 300.583649,427.517029 
	C300.583649,418.597473 300.561035,410.155701 300.623383,401.714539 
	C300.628815,400.980621 301.148407,399.641205 301.506592,399.614319 
	C304.765015,399.369690 308.187958,398.769470 311.243805,399.539368 
	C312.600250,399.881104 313.225342,403.125458 314.183594,405.465698 
z"/>
<path fill="#81B2DB" opacity="1.000000" stroke="none" 
	d="
M93.181030,400.062012 
	C93.943123,404.027679 94.524406,407.737579 94.807411,411.470032 
	C95.020737,414.283600 94.863548,417.126129 94.851128,419.955688 
	C94.820549,426.921326 93.914970,427.630798 87.105049,427.728485 
	C82.474068,427.794891 80.847023,425.664856 80.969604,421.349915 
	C81.092453,417.025757 80.998337,412.695374 80.996552,408.367737 
	C80.992638,398.885437 83.636368,396.981079 93.181030,400.062012 
M89.209694,415.429260 
	C89.057907,411.913666 88.906120,408.398071 88.754333,404.882477 
	C88.297203,404.937073 87.840065,404.991669 87.382935,405.046265 
	C87.382935,410.676056 87.382935,416.305878 87.382935,421.935699 
	C87.872345,421.944366 88.361755,421.953064 88.851166,421.961761 
	C88.970390,420.105804 89.089615,418.249878 89.209694,415.429260 
z"/>
<path fill="#88BAE4" opacity="1.000000" stroke="none" 
	d="
M398.862793,419.095703 
	C398.862823,412.346069 398.862823,406.040405 398.862823,398.939575 
	C401.863373,398.939575 404.456299,398.939240 407.049194,398.939667 
	C410.803955,398.940338 412.487854,400.948395 412.492249,404.570068 
	C412.499969,410.899078 412.380493,417.231323 412.549896,423.555908 
	C412.653656,427.429474 410.959015,428.230774 406.875641,426.916595 
	C406.875641,419.777893 406.875641,412.429810 406.875641,405.081726 
	C406.317108,405.009613 405.758575,404.937500 405.200043,404.865387 
	C404.914764,406.050385 404.405640,407.231140 404.383148,408.421112 
	C404.288666,413.415955 404.164429,418.421539 404.391327,423.407715 
	C404.583771,427.634735 402.742157,428.288757 398.862732,426.930664 
	C398.862732,424.490997 398.862732,422.015350 398.862793,419.095703 
z"/>
<path fill="#86B8E2" opacity="1.000000" stroke="none" 
	d="
M174.144684,403.831238 
	C174.156143,406.727020 174.545822,409.310913 174.004852,411.682526 
	C173.627228,413.338074 172.009949,415.950897 170.886475,415.982178 
	C165.952850,416.119354 165.823196,419.042755 166.040466,422.628235 
	C166.128418,424.079498 165.883789,425.550934 165.792633,426.979919 
	C161.792038,428.416534 160.341782,427.208740 160.472198,423.249725 
	C160.669098,417.272095 160.373627,411.277496 160.599808,405.301971 
	C160.686218,403.018707 158.944595,399.696320 163.216705,398.922211 
	C169.466415,397.789764 172.464386,398.976898 174.144684,403.831238 
z"/>
<path fill="#81B2DB" opacity="1.000000" stroke="none" 
	d="
M50.957741,411.177338 
	C50.957394,415.053955 50.957394,418.460052 50.957394,422.217560 
	C52.166698,421.863495 52.633915,421.805450 53.022156,421.598907 
	C54.451908,420.838470 55.855473,420.028748 57.268879,419.237579 
	C57.865128,420.417725 59.164276,421.791901 58.903782,422.735535 
	C58.435570,424.431702 57.370502,426.694824 55.960342,427.274200 
	C49.398361,429.970215 45.279102,427.034302 45.253227,420.037842 
	C45.233547,414.717041 45.211075,409.395050 45.300186,404.075439 
	C45.362934,400.329865 47.533081,398.775391 51.134434,398.866119 
	C54.437874,398.949310 58.229374,398.315857 58.902512,402.975647 
	C59.101295,404.351715 58.140293,405.895355 57.710773,407.362183 
	C56.274956,406.878143 54.820202,406.441986 53.413185,405.885162 
	C52.892303,405.679047 52.483620,405.189392 51.246937,404.220276 
	C51.126789,406.918457 51.042439,408.812653 50.957741,411.177338 
z"/>
<path fill="#86B8E2" opacity="1.000000" stroke="none" 
	d="
M572.601257,421.772949 
	C574.214966,422.363983 575.831665,422.255005 576.685364,423.009460 
	C577.420410,423.659149 577.285645,425.293091 577.535400,426.491852 
	C574.689331,426.856567 571.832031,427.515961 569.003845,427.408875 
	C568.140503,427.376190 566.684570,425.256714 566.647278,424.057343 
	C566.425659,416.922516 566.427612,409.773773 566.649475,402.638855 
	C566.688049,401.399200 568.088379,399.207245 568.936768,399.169067 
	C571.773132,399.041412 574.644592,399.691528 577.502563,400.043701 
	C576.845093,401.436371 576.408936,403.010437 575.461975,404.165802 
	C574.667297,405.135468 573.276917,405.616974 572.150269,406.314636 
	C573.051331,407.599243 574.255554,408.774811 574.767761,410.199219 
	C575.274658,411.608582 575.420471,414.555023 575.147461,414.626648 
	C571.045776,415.702484 572.103210,418.733124 572.601257,421.772949 
z"/>
<path fill="#81B2DB" opacity="1.000000" stroke="none" 
	d="
M538.102173,427.666565 
	C534.611816,428.008484 533.118225,427.030396 533.230835,423.565979 
	C533.457581,416.592255 533.190674,409.602661 533.407288,402.628296 
	C533.445984,401.382172 534.788879,399.172302 535.605713,399.136292 
	C538.452271,399.010925 541.332275,399.644714 544.199524,399.989899 
	C543.424622,401.433289 542.794189,402.984436 541.825500,404.283264 
	C541.145752,405.194733 539.234863,405.773590 539.245239,406.480774 
	C539.262024,407.620911 540.142700,409.163452 541.131470,409.792755 
	C543.638306,411.388214 543.601868,412.886139 541.876648,415.024139 
	C540.468689,416.768829 539.359253,418.754395 537.923584,420.926544 
	C539.712646,421.794128 540.339050,421.993530 540.841431,422.362061 
	C542.100159,423.285400 543.302795,424.285309 544.527893,425.254517 
	C543.194702,426.058075 541.902405,426.945740 540.507751,427.622650 
	C539.969360,427.883972 539.198669,427.666718 538.102173,427.666565 
z"/>
<path fill="#86B8E2" opacity="1.000000" stroke="none" 
	d="
M369.471161,398.912384 
	C370.703491,398.911896 371.633301,398.673767 372.347656,398.964691 
	C373.921417,399.605560 375.386444,400.513336 376.895844,401.312164 
	C375.738831,402.321930 374.552551,403.300629 373.435059,404.352417 
	C372.684357,405.058929 371.465881,405.872223 371.470276,406.631866 
	C371.476532,407.698975 372.147675,409.225739 373.017426,409.741455 
	C376.234955,411.649506 376.379364,413.006500 373.284698,415.432617 
	C371.807526,416.590637 371.523834,419.271027 370.622955,421.446838 
	C373.898285,422.918976 378.564636,421.865997 376.333832,427.274048 
	C373.090485,427.274048 369.700531,427.274048 365.786346,427.274048 
	C365.786346,418.601440 365.681091,410.152130 365.930756,401.713348 
	C365.959229,400.750366 367.976044,399.846191 369.471161,398.912384 
z"/>
<path fill="#86B8E2" opacity="1.000000" stroke="none" 
	d="
M447.068695,410.690704 
	C446.931793,416.010925 446.794891,421.331146 445.914062,426.932007 
	C442.402649,427.264221 439.635162,427.315857 436.867676,427.367462 
	C436.168030,426.507385 435.468384,425.647308 434.747681,424.003143 
	C434.654572,416.427551 434.582520,409.636047 434.510437,402.844513 
	C436.215912,397.381531 440.712402,398.759338 444.400116,399.203705 
	C448.320953,399.676117 448.309204,403.022034 447.617249,406.563934 
	C445.751648,407.014954 444.368469,407.020264 442.907898,406.799011 
	C442.830475,406.572449 442.639465,406.133331 442.689301,405.810974 
	C442.196350,405.097992 441.653534,404.707397 441.110748,404.316772 
	C440.818634,404.910156 440.526520,405.503571 440.179993,406.493164 
	C440.225067,408.208435 440.324554,409.527496 440.305664,411.305115 
	C440.187256,415.286865 440.187256,418.810028 440.187256,422.333221 
	C440.984039,422.324768 441.780823,422.316315 442.577606,422.307892 
	C442.577606,420.381439 442.787659,418.425079 442.518524,416.536987 
	C442.248993,414.645691 441.500946,412.822601 441.287903,410.955811 
	C442.027496,410.812683 442.441772,410.683411 443.259766,410.700531 
	C444.798584,410.794861 445.933624,410.742767 447.068695,410.690704 
z"/>
<path fill="#7EAFD8" opacity="1.000000" stroke="none" 
	d="
M273.390289,421.607758 
	C274.750061,422.159119 276.220520,421.983307 276.937134,422.635620 
	C277.834869,423.452881 278.113739,424.949951 278.659729,426.153564 
	C275.900452,426.658417 273.146118,427.462128 270.379242,427.507812 
	C269.396210,427.524017 267.548248,425.723969 267.516235,424.708191 
	C267.275482,417.076111 267.255310,409.427582 267.552917,401.799286 
	C267.592926,400.774078 269.809143,399.003967 270.993500,399.023804 
	C273.555603,399.066620 276.102081,400.046631 278.654968,400.643311 
	C277.312775,402.349304 275.970551,404.055298 274.628326,405.761322 
	C273.933289,405.710907 273.238251,405.660492 272.543213,405.610077 
	C273.488312,407.041260 274.734741,408.364929 275.294281,409.933594 
	C275.861908,411.524963 276.049255,414.838501 275.894135,414.869720 
	C271.722351,415.709686 273.289581,418.834015 273.390289,421.607758 
z"/>
<path fill="#86B8E2" opacity="1.000000" stroke="none" 
	d="
M386.996948,169.032196 
	C387.668152,166.295776 388.228699,163.526123 389.038330,160.831314 
	C390.070709,157.395218 392.608398,155.044708 396.060333,155.974533 
	C398.387543,156.601395 400.191101,159.172272 402.228943,160.873505 
	C401.923004,161.230453 401.617065,161.587387 401.311127,161.944336 
	C398.534760,161.426071 395.758423,160.907822 391.732269,160.156281 
	C394.761261,170.006271 401.552155,178.144363 394.365570,187.373535 
	C392.158112,183.073288 389.942169,178.756546 387.350372,174.239319 
	C386.702484,173.376694 386.430481,172.714554 386.158447,172.052429 
	C386.222443,171.518158 386.286438,170.983902 386.632324,169.995102 
	C386.982147,169.377701 387.009705,169.208237 386.996948,169.032196 
z"/>
<path fill="#88BAE4" opacity="1.000000" stroke="none" 
	d="
M235.717102,422.523682 
	C235.718750,418.255219 235.793640,414.430786 235.697083,410.610748 
	C235.630524,407.977570 236.723221,404.825378 232.750320,403.660675 
	C232.220856,403.505463 231.843567,401.596344 232.038788,400.629272 
	C232.173477,399.962036 233.387421,399.104797 234.169693,399.049561 
	C236.980942,398.851013 239.825058,398.811646 242.631805,399.031036 
	C243.551758,399.102936 245.037323,400.065704 245.124466,400.763458 
	C245.255814,401.815063 244.458572,403.027771 243.924118,404.106628 
	C243.148056,405.673187 241.602753,407.150024 241.526855,408.720276 
	C241.239105,414.673096 241.411011,420.648102 241.411011,426.774780 
	C237.230988,428.500977 235.255005,427.544586 235.717102,422.523682 
z"/>
<path fill="#88BAE4" opacity="1.000000" stroke="none" 
	d="
M272.319427,226.337082 
	C272.266571,226.701965 272.213715,227.066849 271.889954,227.893921 
	C271.582214,228.707108 271.545380,229.058090 271.508545,229.409088 
	C271.383881,230.046448 271.259216,230.683823 270.837280,231.821075 
	C270.500061,232.671936 270.460175,233.022934 270.420288,233.373917 
	C270.361176,233.728653 270.302063,234.083389 269.946045,234.947281 
	C269.536041,236.090836 269.422882,236.725235 269.309753,237.359650 
	C268.305206,240.931061 265.717499,243.030212 262.322449,241.999435 
	C259.969971,241.285187 258.184357,238.703720 256.145477,236.956543 
	C256.435913,236.608032 256.726379,236.259521 257.016815,235.910995 
	C259.794708,236.532516 262.572632,237.154037 266.437012,238.018631 
	C264.518799,228.529617 256.598785,220.659836 264.386322,211.107590 
	C266.351868,215.510818 268.063202,219.344543 269.985779,223.765167 
	C270.720856,224.579376 271.244659,224.806656 271.889557,225.366760 
	C272.113586,225.912079 272.216492,226.124573 272.319427,226.337082 
z"/>
<path fill="#1E6BAE" opacity="1.000000" stroke="none" 
	d="
M353.705109,105.166840 
	C353.325897,105.179306 352.946686,105.191765 351.996582,104.931488 
	C350.248108,104.470741 349.070557,104.282722 347.893005,104.094704 
	C347.893005,104.094704 347.909424,104.013199 347.910950,103.725204 
	C347.903107,103.218842 347.893768,103.000458 347.884460,102.782082 
	C353.445740,97.608070 359.905304,97.378433 366.900360,98.965538 
	C368.854401,99.408882 371.094421,98.591881 373.203247,98.353058 
	C372.331207,96.356407 371.463165,94.357994 370.583801,92.364571 
	C370.404175,91.957329 370.182068,91.568825 369.753937,90.729294 
	C373.325928,90.301430 375.584534,91.584366 376.615601,94.535980 
	C377.774567,97.853706 376.933594,100.853592 373.851379,102.774933 
	C370.906281,104.610802 367.790588,106.172974 364.162537,107.750259 
	C360.285156,106.818985 356.995117,105.992912 353.705109,105.166840 
z"/>
<path fill="#7EAFD8" opacity="1.000000" stroke="none" 
	d="
M385.967255,172.358932 
	C386.430481,172.714554 386.702484,173.376694 386.947449,174.312256 
	C384.306183,181.041794 387.474640,186.575867 390.174408,191.908401 
	C393.182251,197.849396 391.205566,202.912018 388.607971,209.420074 
	C386.619232,204.670761 385.059143,200.945084 383.343384,196.517456 
	C382.413910,194.138504 381.640106,192.461517 380.866302,190.784531 
	C382.502899,184.744827 384.139465,178.705139 385.967255,172.358932 
z"/>
<path fill="#1E6BAE" opacity="1.000000" stroke="none" 
	d="
M287.983063,293.546265 
	C292.861633,290.870392 297.740204,288.194519 303.280151,285.834595 
	C304.312073,286.478088 304.682587,286.805634 305.053101,287.133148 
	C303.142151,287.899933 301.231201,288.666718 299.320251,289.433502 
	C299.315399,289.983093 299.310577,290.532684 299.305725,291.082275 
	C303.236603,291.847717 307.167450,292.613159 311.192749,293.397003 
	C308.816895,297.654968 303.008484,300.822205 298.970978,300.208282 
	C295.223663,299.638458 291.493774,298.954132 287.233276,297.906067 
	C286.425873,296.626648 286.141357,295.761414 285.856842,294.896149 
	C285.856842,294.896149 285.882416,294.880188 286.157776,294.840607 
	C286.949799,294.382782 287.466431,293.964539 287.983063,293.546265 
z"/>
<path fill="#7EAFD8" opacity="1.000000" stroke="none" 
	d="
M469.922058,402.790222 
	C470.942505,401.220459 471.960419,400.058868 472.978302,398.897247 
	C473.885925,400.157928 475.529846,401.390900 475.578430,402.683868 
	C475.840088,409.644531 475.573975,416.623444 475.755402,423.589172 
	C475.869293,427.961761 473.755493,428.194214 469.919525,426.969971 
	C469.919525,419.069122 469.919525,411.133759 469.922058,402.790222 
z"/>
<path fill="#7EAFD8" opacity="1.000000" stroke="none" 
	d="
M271.768463,225.033951 
	C271.244659,224.806656 270.720856,224.579376 270.085541,224.163696 
	C272.891357,220.840897 273.292206,217.350174 271.530823,213.502838 
	C270.634338,211.544693 270.101624,209.375977 268.966553,207.579056 
	C265.096680,201.452560 266.881989,195.615570 269.760376,188.662506 
	C272.022858,193.789856 273.927673,198.106613 276.384216,202.805069 
	C277.569824,203.112366 278.203735,203.037964 278.837646,202.963562 
	C278.607086,203.756348 278.376526,204.549118 277.645752,205.911255 
	C276.840363,208.049667 276.535217,209.618713 276.230072,211.187759 
	C276.235321,211.591141 276.240570,211.994522 276.005554,212.917542 
	C275.729065,213.801575 275.692810,214.166000 275.656555,214.530411 
	C275.636963,214.857483 275.563110,215.171814 275.128296,215.979858 
	C274.706573,217.166534 274.591614,217.846741 274.476685,218.526947 
	C274.469818,218.853531 274.415497,219.172028 274.012573,219.979584 
	C273.600983,221.135651 273.490540,221.794540 273.380096,222.453445 
	C273.334686,222.792664 273.289276,223.131882 272.923340,223.872040 
	C272.324677,224.526627 272.046570,224.780289 271.768463,225.033951 
z"/>
<path fill="#286599" opacity="1.000000" stroke="none" 
	d="
M347.472565,261.074829 
	C345.893829,262.379913 344.456726,263.926819 342.712006,264.948395 
	C334.919739,269.510834 327.039673,273.923340 319.191315,278.389954 
	C319.213745,278.906311 319.236145,279.422668 319.258545,279.938995 
	C321.832825,280.442444 324.401764,280.975464 326.982819,281.441406 
	C329.823944,281.954254 329.828796,281.927338 329.087097,284.532532 
	C322.407532,283.190826 316.187744,282.079254 309.967987,280.967682 
	C315.836090,277.288910 321.619873,273.466248 327.592834,269.966400 
	C335.753448,265.184601 344.057983,260.648468 352.550751,256.179993 
	C352.512024,256.772308 352.223328,257.191589 351.645630,257.821533 
	C350.061951,259.046417 348.767273,260.060638 347.472565,261.074829 
z"/>
<path fill="#307CBE" opacity="1.000000" stroke="none" 
	d="
M328.921082,115.051949 
	C331.533569,110.626961 335.509521,108.466705 340.531189,108.890068 
	C345.110199,109.276115 349.639038,110.256721 354.580078,111.331825 
	C354.919861,112.260254 354.869537,112.832146 354.819214,113.404037 
	C354.091461,113.867821 353.363708,114.331612 352.071747,114.940842 
	C350.961212,115.491829 350.414856,115.897369 349.868500,116.302917 
	C349.061890,116.784073 348.255310,117.265221 346.942657,117.892845 
	C346.228485,118.159386 346.075928,118.329315 345.978973,118.549133 
	C345.864044,118.673286 345.749084,118.797447 345.150452,118.905365 
	C339.418243,117.610069 334.169678,116.331009 328.921082,115.051949 
z"/>
<path fill="#286599" opacity="1.000000" stroke="none" 
	d="
M329.130188,115.340202 
	C334.169678,116.331009 339.418243,117.610069 344.924164,119.020264 
	C333.951294,125.604515 322.721100,132.057617 311.183319,138.281555 
	C310.907288,137.528244 310.938843,137.004120 310.970398,136.479980 
	C319.256775,131.622070 327.544342,126.766167 335.828430,121.904404 
	C337.329681,121.023331 338.816833,120.118202 341.395416,118.574791 
	C336.511780,117.381302 332.925568,116.504883 329.130188,115.340202 
z"/>
<path fill="#307CBE" opacity="1.000000" stroke="none" 
	d="
M309.740540,281.061401 
	C316.187744,282.079254 322.407532,283.190826 328.796143,284.621826 
	C323.582031,289.858368 317.374115,290.122986 310.082184,287.869263 
	C308.729370,287.495239 308.066803,287.419006 307.404266,287.342773 
	C306.810272,287.335083 306.216248,287.327393 305.337677,287.226440 
	C304.682587,286.805634 304.312073,286.478088 303.635437,285.927612 
	C304.269958,284.826721 305.210571,283.948822 306.753723,282.937500 
	C307.936768,282.342407 308.517273,281.880707 309.097778,281.419006 
	C309.097748,281.418976 309.513062,281.155121 309.740540,281.061401 
z"/>
<path fill="#3A74A7" opacity="1.000000" stroke="none" 
	d="
M351.934631,257.610870 
	C352.223328,257.191589 352.512024,256.772308 352.911072,256.122162 
	C353.443115,255.617096 353.864746,255.342865 354.864929,254.952698 
	C356.653625,254.012115 357.863770,253.187515 359.073944,252.362885 
	C359.764099,251.941101 360.454254,251.519302 361.729919,250.943115 
	C362.895203,250.281738 363.475006,249.774750 364.054810,249.267761 
	C365.019928,246.218002 365.985046,243.168259 367.390869,240.063751 
	C368.173889,240.316315 368.516205,240.623642 368.858490,240.930969 
	C368.336639,248.223434 365.305634,253.867920 357.661621,256.482574 
	C357.826782,256.905487 357.991974,257.328369 358.157166,257.751282 
	C360.954437,258.302704 363.751007,258.857758 366.549225,259.404297 
	C368.472382,259.779877 370.432770,260.122772 368.097961,262.520233 
	C365.328674,261.586639 363.024139,260.895721 360.717865,260.210846 
	C357.790863,259.341644 354.862427,258.477295 351.934631,257.610870 
z"/>
<path fill="#5083AF" opacity="1.000000" stroke="none" 
	d="
M380.629547,191.065613 
	C381.640106,192.461517 382.413910,194.138504 383.206116,196.162567 
	C382.216705,197.978470 380.772583,199.313614 380.274719,200.938675 
	C377.765717,209.128342 375.503326,217.393585 372.558533,225.867371 
	C371.679291,226.075073 371.395905,226.047699 371.112518,226.020325 
	C374.205933,214.462448 377.299377,202.904556 380.629547,191.065613 
z"/>
<path fill="#5B95C7" opacity="1.000000" stroke="none" 
	d="
M286.123993,170.024979 
	C284.622620,164.853119 283.043335,159.702057 281.653778,154.500320 
	C280.990509,152.017471 280.687531,149.438385 280.221375,146.902878 
	C280.782745,146.766159 281.344086,146.629456 281.905457,146.492752 
	C284.031891,150.695221 286.158325,154.897690 288.926910,159.287384 
	C289.890137,159.802963 290.211243,160.131332 290.532349,160.459686 
	C290.048920,162.172455 289.565460,163.885223 288.622772,166.059464 
	C288.138275,167.048462 288.113037,167.575989 288.087769,168.103516 
	C287.971710,169.093460 287.855621,170.083405 287.368744,171.097534 
	C286.706635,170.756134 286.415314,170.390549 286.123993,170.024979 
z"/>
<path fill="#5B95C7" opacity="1.000000" stroke="none" 
	d="
M310.581604,136.558716 
	C310.938843,137.004120 310.907288,137.528244 310.860291,138.446777 
	C309.157654,139.818359 307.470398,140.795547 305.205200,141.808182 
	C303.564728,141.173187 302.502136,140.502747 301.439575,139.832306 
	C297.329803,139.026291 293.220062,138.220276 289.110291,137.414261 
	C289.195190,136.843918 289.280090,136.273560 289.364990,135.703201 
	C296.352478,132.303040 303.243011,136.918365 310.581604,136.558716 
z"/>
<path fill="#5B95C7" opacity="1.000000" stroke="none" 
	d="
M368.959839,240.643875 
	C368.516205,240.623642 368.173889,240.316315 367.579712,239.769318 
	C368.187744,236.361771 369.047699,233.193878 369.907623,230.025986 
	C370.438721,229.971817 370.969818,229.917633 371.500916,229.863464 
	C373.103790,237.078033 378.529175,243.088379 378.016663,250.969360 
	C377.444458,251.192825 376.872253,251.416290 376.300049,251.639755 
	C374.738831,247.980515 373.226624,244.299133 371.589081,240.674377 
	C371.034668,239.447144 370.321381,237.039749 368.959839,240.643875 
z"/>
<path fill="#3A74A7" opacity="1.000000" stroke="none" 
	d="
M301.416382,140.218018 
	C302.502136,140.502747 303.564728,141.173187 304.920593,141.978455 
	C304.736511,142.561203 304.335358,143.225082 303.770294,143.424515 
	C295.943054,146.186935 292.190338,152.067703 290.757446,160.198059 
	C290.211243,160.131332 289.890137,159.802963 289.311615,159.246078 
	C289.453308,150.390961 293.991913,144.538193 301.416382,140.218018 
z"/>
<path fill="#5083AF" opacity="1.000000" stroke="none" 
	d="
M285.935364,170.338928 
	C286.415314,170.390549 286.706635,170.756134 287.176575,171.424271 
	C287.473083,171.989487 287.485474,172.257034 287.108826,173.023087 
	C286.663574,174.227631 286.501862,174.938553 286.340149,175.649490 
	C286.415405,175.947495 286.409088,176.243744 286.050049,177.006531 
	C285.584259,177.855713 285.389557,178.236603 285.194824,178.617493 
	C284.960602,180.170837 284.726349,181.724182 284.159241,183.897369 
	C283.666016,185.223099 283.505615,185.928970 283.345215,186.634857 
	C283.414459,186.938965 283.405792,187.240829 283.049225,188.010681 
	C282.586731,188.859406 282.394226,189.237930 282.201691,189.616440 
	C282.236023,190.209045 282.270325,190.801666 282.016113,191.936066 
	C281.541931,192.854630 281.356232,193.231400 281.170532,193.608185 
	C280.917419,195.175598 280.664307,196.743011 280.099243,198.892151 
	C279.591400,199.852753 279.395477,200.231613 279.199585,200.610474 
	C279.195831,201.268219 279.192078,201.925949 279.012970,202.773621 
	C278.203735,203.037964 277.569824,203.112366 276.627686,203.157196 
	C279.461884,192.302689 282.604279,181.477783 285.935364,170.338928 
z"/>
<path fill="#286599" opacity="1.000000" stroke="none" 
	d="
M285.511688,294.957611 
	C286.141357,295.761414 286.425873,296.626648 286.844482,297.805176 
	C281.975342,302.206757 288.319519,303.981384 289.094177,307.229706 
	C285.386719,308.078186 282.979553,306.605164 281.800293,303.620972 
	C280.349304,299.949097 281.263519,296.797516 285.511688,294.957611 
z"/>
<path fill="#5B95C7" opacity="1.000000" stroke="none" 
	d="
M351.645630,257.821533 
	C354.862427,258.477295 357.790863,259.341644 360.717865,260.210846 
	C363.024139,260.895721 365.328674,261.586639 367.802002,262.599487 
	C362.987518,262.797058 358.000763,262.751740 353.024902,262.495789 
	C351.421692,262.413330 349.846954,261.776398 347.865906,261.233978 
	C348.767273,260.060638 350.061951,259.046417 351.645630,257.821533 
z"/>
<path fill="#286599" opacity="1.000000" stroke="none" 
	d="
M355.166382,113.415848 
	C354.869537,112.832146 354.919861,112.260254 354.988159,111.400322 
	C356.465393,110.160454 357.924622,109.208626 360.065704,107.812035 
	C357.633484,106.895142 355.924438,106.250854 353.960236,105.386703 
	C356.995117,105.992912 360.285156,106.818985 363.850952,107.898888 
	C361.255676,109.911034 358.384613,111.669350 355.166382,113.415848 
z"/>
<path fill="#2C4F6B" opacity="1.000000" stroke="none" 
	d="
M434.240784,403.096008 
	C434.582520,409.636047 434.654572,416.427551 434.623352,423.687805 
	C434.337067,417.220184 434.154083,410.283875 434.240784,403.096008 
z"/>
<path fill="#2C4F6B" opacity="1.000000" stroke="none" 
	d="
M437.082550,427.648926 
	C439.635162,427.315857 442.402649,427.264221 445.631226,427.218536 
	C443.160675,427.459778 440.229034,427.695099 437.082550,427.648926 
z"/>
<path fill="#2C4F6B" opacity="1.000000" stroke="none" 
	d="
M447.004089,410.443115 
	C445.933624,410.742767 444.798584,410.794861 443.318054,410.350830 
	C442.976807,408.911682 442.981079,407.968658 442.985321,407.025604 
	C444.368469,407.020264 445.751648,407.014954 447.549500,406.976990 
	C447.622620,408.028107 447.281067,409.111847 447.004089,410.443115 
z"/>
<path fill="#3A74A7" opacity="1.000000" stroke="none" 
	d="
M276.411285,210.952850 
	C276.535217,209.618713 276.840363,208.049667 277.406921,206.248611 
	C277.309723,207.583710 276.951111,209.150818 276.411285,210.952850 
z"/>
<path fill="#286599" opacity="1.000000" stroke="none" 
	d="
M358.752106,252.397308 
	C357.863770,253.187515 356.653625,254.012115 355.103943,254.869507 
	C355.986359,254.078766 357.208313,253.255234 358.752106,252.397308 
z"/>
<path fill="#286599" opacity="1.000000" stroke="none" 
	d="
M348.059937,104.336891 
	C349.070557,104.282722 350.248108,104.470741 351.717896,104.868858 
	C350.749084,104.912338 349.487976,104.745712 348.059937,104.336891 
z"/>
<path fill="#5083AF" opacity="1.000000" stroke="none" 
	d="
M273.586853,222.326080 
	C273.490540,221.794540 273.600983,221.135651 273.925232,220.206329 
	C274.023865,220.690170 273.908752,221.444443 273.586853,222.326080 
z"/>
<path fill="#3A74A7" opacity="1.000000" stroke="none" 
	d="
M286.530640,175.475739 
	C286.501862,174.938553 286.663574,174.227631 287.032715,173.213440 
	C287.067108,173.707443 286.894104,174.504715 286.530640,175.475739 
z"/>
<path fill="#3A74A7" opacity="1.000000" stroke="none" 
	d="
M283.530151,186.459076 
	C283.505615,185.928970 283.666016,185.223099 284.031860,184.215820 
	C284.063263,184.704056 283.889191,185.493683 283.530151,186.459076 
z"/>
<path fill="#3A74A7" opacity="1.000000" stroke="none" 
	d="
M288.197571,167.936432 
	C288.113037,167.575989 288.138275,167.048462 288.341705,166.325012 
	C288.449066,166.675858 288.378204,167.222610 288.197571,167.936432 
z"/>
<path fill="#5083AF" opacity="1.000000" stroke="none" 
	d="
M274.683167,218.390289 
	C274.591614,217.846741 274.706573,217.166534 275.033844,216.203812 
	C275.127319,216.698730 275.008453,217.476181 274.683167,218.390289 
z"/>
<path fill="#5083AF" opacity="1.000000" stroke="none" 
	d="
M271.889557,225.366760 
	C272.046570,224.780289 272.324677,224.526627 272.836121,224.114105 
	C272.953552,224.672455 272.837616,225.389679 272.520569,226.221985 
	C272.216492,226.124573 272.113586,225.912079 271.889557,225.366760 
z"/>
<path fill="#5B95C7" opacity="1.000000" stroke="none" 
	d="
M371.010559,226.259796 
	C371.395905,226.047699 371.679291,226.075073 372.389221,226.149292 
	C372.217010,227.527344 371.618225,228.858536 370.863220,229.372681 
	C370.735291,228.212708 370.763611,227.869797 370.791931,227.526871 
	C370.830811,227.184326 370.869690,226.841797 371.010559,226.259796 
z"/>
<path fill="#286599" opacity="1.000000" stroke="none" 
	d="
M350.141266,116.334564 
	C350.414856,115.897369 350.961212,115.491829 351.771790,115.064293 
	C351.495331,115.483604 350.954681,115.924919 350.141266,116.334564 
z"/>
<path fill="#286599" opacity="1.000000" stroke="none" 
	d="
M287.721924,293.552917 
	C287.466431,293.964539 286.949799,294.382782 286.172760,294.838806 
	C286.428528,294.437622 286.944672,293.998627 287.721924,293.552917 
z"/>
<path fill="#5083AF" opacity="1.000000" stroke="none" 
	d="
M269.514832,237.243195 
	C269.422882,236.725235 269.536041,236.090836 269.864105,235.204559 
	C269.959320,235.677353 269.839630,236.402039 269.514832,237.243195 
z"/>
<path fill="#286599" opacity="1.000000" stroke="none" 
	d="
M363.775146,249.348358 
	C363.475006,249.774750 362.895203,250.281738 362.013428,250.833817 
	C362.306122,250.395584 362.900818,249.912277 363.775146,249.348358 
z"/>
<path fill="#286599" opacity="1.000000" stroke="none" 
	d="
M308.807068,281.417542 
	C308.517273,281.880707 307.936768,282.342407 307.062622,282.816956 
	C307.351471,282.358521 307.933929,281.887299 308.807068,281.417542 
z"/>
<path fill="#1E6BAE" opacity="1.000000" stroke="none" 
	d="
M307.571747,287.521301 
	C308.066803,287.419006 308.729370,287.495239 309.677887,287.746643 
	C309.222321,287.847839 308.480774,287.773834 307.571747,287.521301 
z"/>
<path fill="#286599" opacity="1.000000" stroke="none" 
	d="
M347.706909,102.919144 
	C347.893768,103.000458 347.903107,103.218842 347.915649,103.765533 
	C347.789032,103.747971 347.659210,103.402092 347.706909,102.919144 
z"/>
<path fill="#286599" opacity="1.000000" stroke="none" 
	d="
M346.131989,118.475128 
	C346.075928,118.329315 346.228485,118.159386 346.600159,117.980896 
	C346.641479,118.119354 346.481903,118.278908 346.131989,118.475128 
z"/>
<path fill="#7EAFD8" opacity="1.000000" stroke="none" 
	d="
M386.867371,169.114990 
	C387.009705,169.208237 386.982147,169.377701 386.850586,169.651733 
	C386.618317,169.587799 386.601929,169.399429 386.867371,169.114990 
z"/>
<path fill="#3A74A7" opacity="1.000000" stroke="none" 
	d="
M285.484100,178.432770 
	C285.389557,178.236603 285.584259,177.855713 285.968506,177.215515 
	C286.029816,177.386826 285.901581,177.817429 285.484100,178.432770 
z"/>
<path fill="#3A74A7" opacity="1.000000" stroke="none" 
	d="
M282.486023,189.430359 
	C282.394226,189.237930 282.586731,188.859406 282.967621,188.223969 
	C283.027466,188.392792 282.898926,188.818527 282.486023,189.430359 
z"/>
<path fill="#3A74A7" opacity="1.000000" stroke="none" 
	d="
M281.438110,193.411530 
	C281.356232,193.231400 281.541931,192.854630 281.914856,192.224289 
	C281.969940,192.385437 281.837799,192.800171 281.438110,193.411530 
z"/>
<path fill="#3A74A7" opacity="1.000000" stroke="none" 
	d="
M279.484131,200.423218 
	C279.395477,200.231613 279.591400,199.852753 279.977539,199.216278 
	C280.034760,199.384430 279.901703,199.810181 279.484131,200.423218 
z"/>
<path fill="#5083AF" opacity="1.000000" stroke="none" 
	d="
M275.846741,214.316727 
	C275.692810,214.166000 275.729065,213.801575 275.930481,213.211395 
	C276.076080,213.358093 276.056488,213.730560 275.846741,214.316727 
z"/>
<path fill="#5083AF" opacity="1.000000" stroke="none" 
	d="
M271.716003,229.223297 
	C271.545380,229.058090 271.582214,228.707108 271.805054,228.157471 
	C271.968506,228.318390 271.945984,228.677948 271.716003,229.223297 
z"/>
<path fill="#5083AF" opacity="1.000000" stroke="none" 
	d="
M370.599091,227.747040 
	C370.763611,227.869797 370.735291,228.212708 370.615143,229.063690 
	C370.484314,229.036911 370.445282,228.502075 370.599091,227.747040 
z"/>
<path fill="#5083AF" opacity="1.000000" stroke="none" 
	d="
M270.628387,233.191238 
	C270.460175,233.022934 270.500061,232.671936 270.733826,232.129028 
	C270.897339,232.294266 270.866913,232.651413 270.628387,233.191238 
z"/>
<path fill="#12324B" opacity="1.000000" stroke="none" 
	d="
M330.819550,205.734283 
	C327.196747,206.226135 325.860229,205.031601 326.049469,201.645782 
	C326.297699,197.205109 326.110352,192.740112 326.110352,187.999435 
	C328.582916,187.999435 330.483948,187.999435 332.883972,187.999435 
	C332.883972,193.532043 332.931793,198.814957 332.812531,204.094070 
	C332.800171,204.642822 331.796112,205.169159 330.819550,205.734283 
z"/>
<path fill="#2C4F6B" opacity="1.000000" stroke="none" 
	d="
M186.198196,345.371338 
	C186.198914,347.298492 186.528534,348.897278 186.093704,350.250397 
	C185.683640,351.526367 184.468765,352.543671 183.607910,353.674774 
	C182.803329,352.471436 181.634933,351.363190 181.288925,350.039948 
	C180.883270,348.488617 180.881119,346.668335 181.288239,345.118134 
	C181.632278,343.808197 182.810318,342.717316 183.619263,341.529449 
	C184.477249,342.664856 185.335251,343.800293 186.198196,345.371338 
z"/>
<path fill="#12324B" opacity="1.000000" stroke="none" 
	d="
M361.445099,360.941040 
	C361.421783,363.261902 361.618011,365.135529 361.277191,366.905792 
	C361.119720,367.723938 359.899658,368.909973 359.187286,368.892151 
	C358.435120,368.873322 357.090027,367.632080 357.075195,366.903107 
	C356.919617,359.246185 356.919495,351.583618 357.076324,343.926727 
	C357.091034,343.208160 358.470276,342.517487 359.216003,341.813873 
	C359.947266,342.697266 361.275238,343.556854 361.311554,344.467957 
	C361.523743,349.789124 361.433289,355.122345 361.445099,360.941040 
z"/>
<path fill="#12324B" opacity="1.000000" stroke="none" 
	d="
M89.209274,415.911591 
	C89.089615,418.249878 88.970390,420.105804 88.851166,421.961761 
	C88.361755,421.953064 87.872345,421.944366 87.382935,421.935699 
	C87.382935,416.305878 87.382935,410.676056 87.382935,405.046265 
	C87.840065,404.991669 88.297203,404.937073 88.754333,404.882477 
	C88.906120,408.398071 89.057907,411.913666 89.209274,415.911591 
z"/>
<path fill="#2C4F6B" opacity="1.000000" stroke="none" 
	d="
M440.962646,410.969604 
	C441.500946,412.822601 442.248993,414.645691 442.518524,416.536987 
	C442.787659,418.425079 442.577606,420.381439 442.577606,422.307892 
	C441.780823,422.316315 440.984039,422.324768 440.187256,422.333221 
	C440.187256,418.810028 440.187256,415.286865 440.454926,411.271729 
	C440.722595,410.779755 440.962646,410.969604 440.962646,410.969604 
z"/>
<path fill="#042239" opacity="1.000000" stroke="none" 
	d="
M441.287933,410.955811 
	C440.962646,410.969604 440.722595,410.779755 440.573303,410.813171 
	C440.324554,409.527496 440.225067,408.208435 440.481689,406.492004 
	C441.438324,406.107544 442.038910,406.120453 442.639465,406.133331 
	C442.639465,406.133331 442.830475,406.572449 442.907898,406.799011 
	C442.981079,407.968658 442.976807,408.911682 442.914307,410.204437 
	C442.441772,410.683411 442.027496,410.812683 441.287933,410.955811 
z"/>
<path fill="#2C4F6B" opacity="1.000000" stroke="none" 
	d="
M442.689301,405.810974 
	C442.038910,406.120453 441.438324,406.107544 440.536072,406.095795 
	C440.526520,405.503571 440.818634,404.910156 441.110748,404.316772 
	C441.653534,404.707397 442.196350,405.097992 442.689301,405.810974 
z"/>
</svg>